<mxfile host="Electron" modified="2023-05-05T09:10:00.009Z" agent="Mozilla/5.0 (Windows NT 10.0; Win64; x64) AppleWebKit/537.36 (KHTML, like Gecko) draw.io/21.2.1 Chrome/112.0.5615.87 Electron/24.1.2 Safari/537.36" etag="1xoKND9zeKDRhhxEIbKX" version="21.2.1" type="device">
  <diagram name="Страница 1" id="wksGUV0U9TxV-VZ260hb">
    <mxGraphModel dx="1036" dy="614" grid="1" gridSize="10" guides="1" tooltips="1" connect="1" arrows="1" fold="1" page="1" pageScale="1" pageWidth="827" pageHeight="1169" math="0" shadow="0">
      <root>
        <mxCell id="0" />
        <mxCell id="1" parent="0" />
        <mxCell id="A7gjERh3BDubyiVtvdxW-8" value="&lt;span style=&quot;color: rgb(44, 45, 48); font-family: Roboto, &amp;quot;San Francisco&amp;quot;, &amp;quot;Helvetica Neue&amp;quot;, Helvetica, Arial; font-size: 15px; font-style: normal; font-variant-ligatures: normal; font-variant-caps: normal; font-weight: 400; letter-spacing: normal; orphans: 2; text-align: start; text-indent: 0px; text-transform: none; widows: 2; word-spacing: 0px; -webkit-text-stroke-width: 0px; background-color: rgb(255, 255, 255); text-decoration-thickness: initial; text-decoration-style: initial; text-decoration-color: initial; float: none; display: inline !important;&quot;&gt;Написать программу, которая из имеющегося массива строк формирует новый массив из строк, длина которых меньше, либо равна 3 символам. Первоначальный массив можно ввести с клавиатуры, либо задать на старте выполнения алгоритма.&amp;nbsp;&lt;/span&gt;" style="text;whiteSpace=wrap;html=1;" vertex="1" parent="1">
          <mxGeometry x="60" y="50" width="220" height="180" as="geometry" />
        </mxCell>
        <mxCell id="A7gjERh3BDubyiVtvdxW-19" style="edgeStyle=orthogonalEdgeStyle;rounded=0;orthogonalLoop=1;jettySize=auto;html=1;exitX=0.5;exitY=1;exitDx=0;exitDy=0;entryX=0.5;entryY=0;entryDx=0;entryDy=0;" edge="1" parent="1" source="A7gjERh3BDubyiVtvdxW-20" target="A7gjERh3BDubyiVtvdxW-22">
          <mxGeometry relative="1" as="geometry" />
        </mxCell>
        <mxCell id="A7gjERh3BDubyiVtvdxW-20" value="Begin" style="rounded=1;whiteSpace=wrap;html=1;" vertex="1" parent="1">
          <mxGeometry x="340" y="40" width="120" height="60" as="geometry" />
        </mxCell>
        <mxCell id="A7gjERh3BDubyiVtvdxW-21" style="edgeStyle=orthogonalEdgeStyle;rounded=0;orthogonalLoop=1;jettySize=auto;html=1;exitX=0.5;exitY=1;exitDx=0;exitDy=0;entryX=0.5;entryY=0;entryDx=0;entryDy=0;" edge="1" parent="1" source="A7gjERh3BDubyiVtvdxW-22" target="A7gjERh3BDubyiVtvdxW-24">
          <mxGeometry relative="1" as="geometry" />
        </mxCell>
        <mxCell id="A7gjERh3BDubyiVtvdxW-22" value="arrayPrimary = [ ]" style="shape=parallelogram;perimeter=parallelogramPerimeter;whiteSpace=wrap;html=1;fixedSize=1;" vertex="1" parent="1">
          <mxGeometry x="320" y="120" width="160" height="60" as="geometry" />
        </mxCell>
        <mxCell id="A7gjERh3BDubyiVtvdxW-23" style="edgeStyle=orthogonalEdgeStyle;rounded=0;orthogonalLoop=1;jettySize=auto;html=1;exitX=0.5;exitY=1;exitDx=0;exitDy=0;entryX=0.5;entryY=0;entryDx=0;entryDy=0;" edge="1" parent="1" source="A7gjERh3BDubyiVtvdxW-24" target="A7gjERh3BDubyiVtvdxW-27">
          <mxGeometry relative="1" as="geometry" />
        </mxCell>
        <mxCell id="A7gjERh3BDubyiVtvdxW-24" value="maxElementLength = 3&lt;br&gt;arrayResult = [ ]&lt;br&gt;i = 0&lt;br&gt;j = 0" style="rounded=0;whiteSpace=wrap;html=1;" vertex="1" parent="1">
          <mxGeometry x="325" y="200" width="150" height="60" as="geometry" />
        </mxCell>
        <mxCell id="A7gjERh3BDubyiVtvdxW-25" value="yes" style="edgeStyle=orthogonalEdgeStyle;rounded=0;orthogonalLoop=1;jettySize=auto;html=1;exitX=0.5;exitY=1;exitDx=0;exitDy=0;entryX=0.5;entryY=0;entryDx=0;entryDy=0;" edge="1" parent="1" source="A7gjERh3BDubyiVtvdxW-27" target="A7gjERh3BDubyiVtvdxW-30">
          <mxGeometry relative="1" as="geometry" />
        </mxCell>
        <mxCell id="A7gjERh3BDubyiVtvdxW-26" style="edgeStyle=orthogonalEdgeStyle;rounded=0;orthogonalLoop=1;jettySize=auto;html=1;exitX=1;exitY=0.5;exitDx=0;exitDy=0;entryX=0.5;entryY=0;entryDx=0;entryDy=0;" edge="1" parent="1" source="A7gjERh3BDubyiVtvdxW-27" target="A7gjERh3BDubyiVtvdxW-35">
          <mxGeometry relative="1" as="geometry">
            <Array as="points">
              <mxPoint x="750" y="335" />
              <mxPoint x="750" y="720" />
              <mxPoint x="400" y="720" />
            </Array>
            <mxPoint x="400" y="670" as="targetPoint" />
          </mxGeometry>
        </mxCell>
        <mxCell id="A7gjERh3BDubyiVtvdxW-27" value="i &amp;lt; arrayPrimary.length" style="rhombus;whiteSpace=wrap;html=1;" vertex="1" parent="1">
          <mxGeometry x="250" y="290" width="300" height="90" as="geometry" />
        </mxCell>
        <mxCell id="A7gjERh3BDubyiVtvdxW-38" value="yes" style="edgeStyle=orthogonalEdgeStyle;rounded=0;orthogonalLoop=1;jettySize=auto;html=1;exitX=1;exitY=0.5;exitDx=0;exitDy=0;entryX=0.5;entryY=0;entryDx=0;entryDy=0;" edge="1" parent="1" source="A7gjERh3BDubyiVtvdxW-30" target="A7gjERh3BDubyiVtvdxW-36">
          <mxGeometry x="-0.6364" y="10" relative="1" as="geometry">
            <mxPoint as="offset" />
          </mxGeometry>
        </mxCell>
        <mxCell id="A7gjERh3BDubyiVtvdxW-41" value="no" style="edgeStyle=orthogonalEdgeStyle;rounded=0;orthogonalLoop=1;jettySize=auto;html=1;exitX=0;exitY=0.5;exitDx=0;exitDy=0;entryX=0;entryY=0.5;entryDx=0;entryDy=0;" edge="1" parent="1" source="A7gjERh3BDubyiVtvdxW-30" target="A7gjERh3BDubyiVtvdxW-34">
          <mxGeometry x="-0.9158" y="-10" relative="1" as="geometry">
            <Array as="points">
              <mxPoint x="170" y="450" />
              <mxPoint x="170" y="675" />
            </Array>
            <mxPoint as="offset" />
          </mxGeometry>
        </mxCell>
        <mxCell id="A7gjERh3BDubyiVtvdxW-30" value="arrayPrimary[i].length &amp;lt; maxElementLength" style="rhombus;whiteSpace=wrap;html=1;" vertex="1" parent="1">
          <mxGeometry x="250" y="410" width="300" height="80" as="geometry" />
        </mxCell>
        <mxCell id="A7gjERh3BDubyiVtvdxW-33" value="no" style="edgeStyle=orthogonalEdgeStyle;rounded=0;orthogonalLoop=1;jettySize=auto;html=1;exitX=0.5;exitY=1;exitDx=0;exitDy=0;entryX=0;entryY=0.5;entryDx=0;entryDy=0;" edge="1" parent="1" source="A7gjERh3BDubyiVtvdxW-34" target="A7gjERh3BDubyiVtvdxW-27">
          <mxGeometry x="0.9365" y="15" relative="1" as="geometry">
            <Array as="points">
              <mxPoint x="400" y="700" />
              <mxPoint x="20" y="700" />
              <mxPoint x="20" y="335" />
            </Array>
            <mxPoint as="offset" />
          </mxGeometry>
        </mxCell>
        <mxCell id="A7gjERh3BDubyiVtvdxW-34" value="i = i + 1" style="rounded=0;whiteSpace=wrap;html=1;" vertex="1" parent="1">
          <mxGeometry x="340" y="660" width="120" height="30" as="geometry" />
        </mxCell>
        <mxCell id="A7gjERh3BDubyiVtvdxW-43" style="edgeStyle=orthogonalEdgeStyle;rounded=0;orthogonalLoop=1;jettySize=auto;html=1;exitX=0.5;exitY=1;exitDx=0;exitDy=0;entryX=0.5;entryY=0;entryDx=0;entryDy=0;" edge="1" parent="1" source="A7gjERh3BDubyiVtvdxW-35" target="A7gjERh3BDubyiVtvdxW-42">
          <mxGeometry relative="1" as="geometry" />
        </mxCell>
        <mxCell id="A7gjERh3BDubyiVtvdxW-35" value="print (arrayResult)" style="shape=parallelogram;perimeter=parallelogramPerimeter;whiteSpace=wrap;html=1;fixedSize=1;" vertex="1" parent="1">
          <mxGeometry x="310" y="750" width="180" height="60" as="geometry" />
        </mxCell>
        <mxCell id="A7gjERh3BDubyiVtvdxW-39" style="edgeStyle=orthogonalEdgeStyle;rounded=0;orthogonalLoop=1;jettySize=auto;html=1;exitX=0.5;exitY=1;exitDx=0;exitDy=0;entryX=0.5;entryY=0;entryDx=0;entryDy=0;" edge="1" parent="1" source="A7gjERh3BDubyiVtvdxW-36" target="A7gjERh3BDubyiVtvdxW-37">
          <mxGeometry relative="1" as="geometry" />
        </mxCell>
        <mxCell id="A7gjERh3BDubyiVtvdxW-36" value="arrayResult[j] = arrayPrimary[i]" style="rounded=0;whiteSpace=wrap;html=1;" vertex="1" parent="1">
          <mxGeometry x="540" y="510" width="120" height="60" as="geometry" />
        </mxCell>
        <mxCell id="A7gjERh3BDubyiVtvdxW-40" style="edgeStyle=orthogonalEdgeStyle;rounded=0;orthogonalLoop=1;jettySize=auto;html=1;exitX=0.5;exitY=1;exitDx=0;exitDy=0;entryX=1;entryY=0.5;entryDx=0;entryDy=0;" edge="1" parent="1" source="A7gjERh3BDubyiVtvdxW-37" target="A7gjERh3BDubyiVtvdxW-34">
          <mxGeometry relative="1" as="geometry" />
        </mxCell>
        <mxCell id="A7gjERh3BDubyiVtvdxW-37" value="j = j + 1" style="rounded=0;whiteSpace=wrap;html=1;" vertex="1" parent="1">
          <mxGeometry x="540" y="590" width="120" height="30" as="geometry" />
        </mxCell>
        <mxCell id="A7gjERh3BDubyiVtvdxW-42" value="End" style="rounded=1;whiteSpace=wrap;html=1;" vertex="1" parent="1">
          <mxGeometry x="340" y="840" width="120" height="60" as="geometry" />
        </mxCell>
      </root>
    </mxGraphModel>
  </diagram>
</mxfile>
